<svg xmlns="http://www.w3.org/2000/svg" xmlns:xlink="http://www.w3.org/1999/xlink" width="144" height="36" viewBox="0 0 144 36">
    <defs>
        <path id="a" d="M0 .917h22.812v26.065H0z"/>
        <path id="c" d="M0 34h144V0H0z"/>
    </defs>
    <g fill="none" fill-rule="evenodd" transform="translate(0 1)">
        <mask id="b" fill="#fff">
            <use xlink:href="#a"/>
        </mask>
        <path fill="#639" d="M17.146 13.95c0-4.468-2.796-7.299-6.843-7.299H5.888v14.596h4.415c4.047 0 6.843-2.83 6.843-7.297m5.666 0c0 7.372-5.409 13.032-12.51 13.032H0V.917h10.303c7.1 0 12.509 5.66 12.509 13.033" mask="url(#b)"/>
        <path fill="#639" d="M38.424 17.5c0-2.7-1.858-4.39-4.424-4.39-2.566 0-4.424 1.69-4.424 4.39 0 2.699 1.858 4.39 4.424 4.39 2.566 0 4.424-1.691 4.424-4.39zM44 8.504v17.992h-5.576v-1.691C37.198 26.172 35.376 27 32.884 27 28.017 27 24 22.861 24 17.5c0-5.362 4.016-9.5 8.885-9.5 2.49 0 4.313.828 5.539 2.194v-1.69H44z"/>
        <mask id="d" fill="#fff">
            <use xlink:href="#c"/>
        </mask>
        <path fill="#639" d="M46.582 27h5.834V8.354h-5.834V27zM46 3.357C46 1.529 47.594 0 49.5 0 51.405 0 53 1.53 53 3.357c0 1.827-1.595 3.356-3.5 3.356-1.906 0-3.5-1.529-3.5-3.356zM56 27h6V0h-6zM82 8l-6.453 18c-2.113 5.902-5.472 8.24-10.754 7.98v-5.195c2.64 0 3.887-.817 4.717-3.08L62 8h6.226l4.19 11.357L75.962 8H82zM101 15.597V27h-5.625V16.414c0-2.303-1.463-3.38-3.263-3.38-2.062 0-3.487 1.188-3.487 3.826V27H83V1h5.625v9.174c1.013-1.374 2.888-2.266 5.362-2.266 3.788 0 7.013 2.675 7.013 7.689M138.424 17.386c0-2.731-1.858-4.442-4.424-4.442-2.565 0-4.424 1.71-4.424 4.442s1.86 4.442 4.424 4.442c2.566 0 4.424-1.71 4.424-4.442m5.576 0c0 5.426-4.014 9.614-8.885 9.614-2.49 0-4.311-.838-5.539-2.222v1.712H124V1h5.576v8.994c1.228-1.383 3.05-2.22 5.539-2.22 4.87 0 8.885 4.186 8.885 9.612M115.306 8v10.535c0 2.29-1.48 3.364-3.302 3.364H112h-.003c-1.822 0-3.303-1.073-3.303-3.364V8H103v11.348c0 4.99 3.265 7.652 7.099 7.652h3.803c3.834 0 7.098-2.662 7.098-7.652V8h-5.694z" mask="url(#d)"/>
    </g>
</svg>
