<svg xmlns="http://www.w3.org/2000/svg" width="288" height="72" viewBox="0 0 288 72">
    <g fill="#04854A" fill-rule="evenodd">
        <path d="M34.292 28.9c0-8.937-5.592-14.597-13.686-14.597h-8.83v29.191h8.83c8.094 0 13.686-5.659 13.686-14.595m11.332 0c0 14.744-10.817 26.066-25.018 26.066H-.001V2.835h20.607c14.2 0 25.018 11.319 25.018 26.064M76.847 36c0-5.4-3.716-8.78-8.847-8.78-5.131 0-8.847 3.38-8.847 8.78 0 5.398 3.716 8.779 8.847 8.779 5.131 0 8.847-3.381 8.847-8.78zM88 18.007v35.984H76.847V50.61C74.395 53.344 70.751 55 65.77 55 56.031 55 48 46.722 48 36c0-10.724 8.031-19 17.77-19 4.981 0 8.625 1.656 11.077 4.389v-3.381H88zM93.165 55h11.666V17.708H93.165V55zM92 7.714C92 4.058 95.187 1 98.999 1S106 4.058 106 7.714c0 3.655-3.19 6.711-7.001 6.711-3.812 0-6.999-3.056-6.999-6.711zM112 55h12V1h-12zM164 17l-12.906 36c-4.226 11.804-10.944 16.481-21.508 15.961V58.57c5.28 0 7.773-1.633 9.434-6.16L124 17h12.451l8.38 22.715L151.925 17H164zM202 32.194V55h-11.25V33.829c0-4.607-2.925-6.762-6.526-6.762-4.124 0-6.974 2.378-6.974 7.653V55H166V3h11.25v18.348c2.025-2.749 5.776-4.532 10.725-4.532 7.576 0 14.025 5.35 14.025 15.378M276.848 35.772c0-5.463-3.716-8.884-8.847-8.884-5.13 0-8.849 3.421-8.849 8.884 0 5.463 3.718 8.885 8.849 8.885 5.13 0 8.847-3.422 8.847-8.885m11.152 0C288 46.623 279.971 55 270.23 55c-4.979 0-8.622-1.675-11.078-4.443v3.423H248V3h11.152v17.988c2.456-2.766 6.1-4.442 11.078-4.442 9.741 0 17.77 8.375 17.77 19.226M230.612 17v21.07c0 4.582-2.962 6.728-6.604 6.728l-.008-.002-.006.002c-3.644 0-6.606-2.146-6.606-6.729V17H206v22.696C206 49.676 212.53 55 220.198 55h7.606C235.472 55 242 49.676 242 39.696V17h-11.388z"/>
    </g>
</svg>
