<svg xmlns="http://www.w3.org/2000/svg" width="25" height="20" viewBox="0 0 25 20">
    <g fill="#639" fill-rule="evenodd">
        <path d="M13 12.909c0-1.665.554-4.066 1.38-6.11.827-2.049 2.108-3.666 5.01-5.75C20.44.295 22.8-.159 23.312.05c-1.147.997-3.616 3.485-4.303 4.52-1.228 1.851-1.683 3.132-2.006 4.494h2.84c2.672 0 5.158 1.517 5.158 5.57C25 18.688 21.238 20 19.39 20c-1.846 0-1.881-.085-2.873-.572-.323-.158-1.305-1.155-2.137-2.186-.555-.687-1.015-2.131-1.38-4.333zM0 12.909c0-1.665.554-4.066 1.38-6.11.827-2.049 2.108-3.666 5.01-5.75C7.44.295 9.8-.159 10.312.05c-1.147.997-3.616 3.485-4.303 4.52C4.78 6.422 4.325 7.703 4.002 9.065h2.84c2.672 0 5.158 1.517 5.158 5.57C12 18.688 8.238 20 6.39 20c-1.846 0-1.881-.085-2.873-.572-.323-.158-1.305-1.155-2.137-2.186C.825 16.555.365 15.111 0 12.91z"/>
        <circle cx="6.5" cy="14.5" r="5.5"/>
        <circle cx="19.5" cy="14.5" r="5.5"/>
    </g>
</svg>
