<svg xmlns="http://www.w3.org/2000/svg" xmlns:xlink="http://www.w3.org/1999/xlink" width="512" height="400" viewBox="0 0 512 400">
    <defs>
        <path id="a" d="M.391 0h512v400h-512z"/>
    </defs>
    <g fill="none" fill-rule="evenodd">
        <mask id="b" fill="#fff">
            <use xlink:href="#a"/>
        </mask>
        <use fill="#F2F2F2" xlink:href="#a"/>
        <path fill="#D8D8D8" d="M41.298-143.945l21.291-.743c.466 4.097 1.584 9.497 3.355 16.199L255.254-190l6.18 19.021-90.154 29.293 15.99 39.574 3.398-1.513.45 1.012 129.542-42.09 1.545 4.754L190.96-97.304l-.278-.854-1.539.685.163.404-4.635 1.873-.098-.242-92.328 41.106c17.077 36.064 41.117 62.41 84.504 88.067 24.644 14.573 47.71 26.945 68.373 39.896l173.564 24.393-.01-.535 103.404-1.805 76.896-37.504 6.597-19.16-15.021-24.039-.024.022-147.993-158.704 3.657-3.41 147.49 158.164.224-.14 18.017 28.834-1.672 1.045-4.92 14.288 9.96-4.858 2.192 4.494-14.454 7.05-.031.09-.09-.031-58.973 28.763 27.38 58.714 216.076-70.3 6.18 19.022-213.741 69.54 39.63 84.986-9.064 4.226-40.148-86.098-108.727 35.327 60.559 144-9.063 4.227-61.078-145.113-87.976 28.585c2.71 6.72 71.64 181.429 74.408 188.638l-20.975.732c-.15-3.226-67.818-176.317-70.625-183.784-45.142 14.807-79.025 26.195-101.649 34.165-58.916 20.755-147.425 53.3-265.526 97.635l-6.18-19.021 265.52-98.77-15.62-35.083-1.238-.933 26.817-35.587-.362-1.116 13.225-4.297-3.772-9.339-44.276-29.864-.543.806-.72-.486-33.468 34.75-2.23-2.007 33.186-34.437L167.82 111.3l-16.045 17.206-2.194-2.046 15.721-16.858-44.16-29.786 1.678-2.488 44.554 30.052 12.666-13.582-44.829-30.237-15.662 18.142-2.23-2.008 15.38-17.828L45.675 3.166 17.92 36.241l-2.298-1.929L42.292 2.53l-.45-1.947-.99-.668.623-.923-8.079-34.992-29.513-6.813.018-.077L-212.603 27l-.877-2.869L1.323-45.239l-17.356-35.585-193.787 62.676L-216-37.17l262.027-84.848a503.642 503.642 0 0 1-4.73-21.927zm48.856 85.071l92.545-41.203-16.186-40.06-94.875 30.827c2.895 9 6.466 19.349 10.713 31.047 2.46 6.773 5.041 13.222 7.803 19.39zM51.11-102.64l-13.094 4.254 13.403 30.104 10.047-2.881C57.67-81.28 54.218-91.773 51.11-102.64zM62.534-68.35l-9.883 2.835 8.36 18.776 9.396-2.695a366.472 366.472 0 0 1-7.873-18.916zm9.13 21.677l-3.96 1.135L79.269-9.95l9.124 6.388 4.268-4.576a70.526 70.526 0 0 1-1.777-2.714c-7.013-11.278-13.42-23.218-19.22-35.82zm22.78 41.02L72.635 17.732l62.092 41.882 17.455-19.386c-22.71-13.528-44.806-28.581-57.74-45.882zm60.372 47.44l-5.622 6.245L207.263 87.2l-.802 1.188.662.617-11.129 11.934 30.39 20.498 20.379-22.633c-17.581-12.395-39.548-26.842-58.354-37.74-10.535-6.105-22.1-12.5-33.593-19.276zm94.412 58.762l-20.333 22.582 28.863 19.468 22.84-17.211c-3.363-3.361-6.412-5.958-9.248-8.27-5.301-4.32-13.048-10.12-22.122-16.57zm33.478 27.006l-22.318 16.818 16.76 11.304-.301.446.896-.362 6.903 17.084 24.45-7.944c-10.757-18.72-19.268-29.82-26.39-37.346zm44.828 31.355l88.707-28.823V102.73L255.128 80.086c19.124 12.734 35.892 26.43 49.568 43.574 7.303 9.155 14.916 20.906 22.838 35.25zm28.762 60.255l87.127-28.31-11.804-25.314-85.935 29.59a870.354 870.354 0 0 1 10.612 24.034zm-17.252 5.605c-3.089-6.914-6.765-14.765-11.03-23.555l-89.396 30.782 9.88 22.193 90.546-29.42zm-6.701-56.908c3.95 7.552 7.974 15.73 12.073 24.533l85.928-29.588-10.848-23.263-87.153 28.318zm-18.28 5.94l-57.848 18.796-22.088 29.311 3.266 7.337 89.298-30.748c-.707-1.447-1.429-2.92-2.166-4.415-3.696-7.502-7.177-14.23-10.462-20.282zM70.117 16.034L86.326-1.346l-8.284-5.8-.92.299L64.819-44.71l-2.576.74.134.302-2.74 1.22-.307-.688-10.995 3.153L58.32-9.25l-.503.164.185.605-14.173 4.333.67 2.903 25.618 17.28zm205.359 142.122l-.006.009-48.602-32.783-11.738 13.036 46.194 31.159-.41.607 3.705 9.168 17.167-5.578-6.31-15.618zm-51.12-34.468L182.56 95.496l-12.666 13.583 42.069 28.376 12.394-13.766zM137.24 61.31l56.237 37.933 10.145-10.879-56.454-38.079-9.928 11.025zM4.553-45.717l.005-.02 28.904 6.672 2.19-.505.022.097 22.424-6.43-8.36-18.776-22.443 6.435-.827-2.884.513-.147-13.04-29.288-27.092 8.803L4.228-46.128l.183-.055.142.466zm32.847 8.87l-.388 1.68-.363-.083 6.504 28.172 11.57-3.537-9.274-28.54-8.05 2.308zM16.81-91.496L29.893-62.11l18.613-5.337-13.36-30.006-18.336 5.957zm423.042 251.03L547.73 122.39l-12.785-27.417-10.21 4.98.012.686-1.473.026-1.064.52-.242-.497-95.728 1.67v24.482l.14-.045 3.09 9.51-.393.128 10.774 23.103zm1.274 2.735l11.88 25.474 108.726-35.327-12.727-27.293-107.879 37.146z" mask="url(#b)" opacity=".4"/>
        <circle cx="289" cy="233" r="6" fill="#333" mask="url(#b)"/>
        <text fill="#333" font-family="NanumSquareB, NanumSquare" font-size="14" font-weight="bold" mask="url(#b)">
            <tspan x="295" y="223">선릉역 5번출구</tspan>
        </text>
        <text fill="#999" font-family="NanumSquareB, NanumSquare" font-size="14" font-weight="bold" mask="url(#b)">
            <tspan x="340" y="27">선릉공원</tspan>
        </text>
        <g fill="#D8D8D8" mask="url(#b)" opacity=".4">
            <path d="M177.434 173.849l2.572 1.545L148 224l-2.572-1.545z"/>
            <path d="M142.598 224.583l5.831-3.232 26.848 59.436-5.83 3.232zM68.838 244.016l6.491-3.166 26.808 68.145-6.49 3.166zM100.85 324.01l6.492-3.165 34.26 83.424-6.491 3.166zM250.85 271.01l6.492-3.165 26.807 68.145-6.49 3.165z"/>
            <path d="M26.24 241.212l.125-7.221 48.892 6.632-.126 7.221z"/>
            <path d="M-15.752 257.2l-3.279-6.434 46.283-17.097 3.279 6.434zM-8.614 189.66l.624-2.934 156.004 35.614-.623 2.934zM373.954 273.533l-1.172-2.762 148.219-60.308 1.172 2.762zM174.694 299.721l4.636-1.873 21.764 64.547-4.635 1.873zM84.742 268.157l-1.124-4.782 149.249-57.711 1.124 4.781zM409.565 383.621l-1.124-4.781 149.249-57.712 1.123 4.782z"/>
            <path d="M130.802 393.522l-2.564-8.346 149.96-55.949 2.564 8.346z"/>
            <path d="M277.112 336.849l1.491-7.9 79.286 15.153-1.492 7.9z"/>
            <path d="M222.886 402.775l3.516 4.323 303.15-131.555-3.517-4.323zM236.437 208.942l-1.59 2.544-89.47-58.737 1.59-2.544z"/>
            <path d="M147.498 150.08l-.418 2.97-82.848-14.067.417-2.97z"/>
            <path d="M117.549 79.496l2.923.675-32.707 131-2.923-.675z"/>
            <path d="M95.384 175.403l-.52 2.955L-37.67 152.55l.521-2.954z"/>
        </g>
        <g transform="translate(202 214)">
            <path fill="#639" d="M17 45S1 31 1 17C1 7.059 8.163 1 17 1s16 6.059 16 16c0 14-16 28-16 28z"/>
            <circle cx="17.5" cy="16.5" r="5.5" fill="#FFF"/>
        </g>
    </g>
</svg>
