<svg xmlns="http://www.w3.org/2000/svg" xmlns:xlink="http://www.w3.org/1999/xlink" width="960" height="400" viewBox="0 0 960 400">
    <defs>
        <path id="a" d="M0 0h960v396H0z"/>
    </defs>
    <g fill="none" fill-rule="evenodd">
        <mask id="b" fill="#fff">
            <use xlink:href="#a"/>
        </mask>
        <use fill="#F2F2F2" xlink:href="#a"/>
        <path fill="#D8D8D8" d="M455.638-267l11.365 19.339-108.768 35.298 19.29 47.687 4.1-1.823.544 1.22L538.455-216l1.865 5.73-158.342 51.387-.335-1.03-1.857.826.197.487-5.593 2.257-.118-.292L262.884-107.1c20.601 43.457 49.605 75.205 101.95 106.122l3.235 1.905c28.516 16.74 55.23 31.13 79.254 46.17L656.719 76.49l-.011-.644 124.75-2.175 92.772-45.193 7.96-23.088-18.123-28.967-.028.026L685.49-214.79l4.412-4.109 177.94 190.59.27-.169L889.85 6.266l-2.017 1.26-5.936 17.216 12.017-5.853 2.644 5.415-17.438 8.495-.038.109-.108-.038-71.148 34.66 33.032 70.752 260.686-84.712L1109 76.49l-257.869 83.798L959.75 430.773l-10.934 5.093L839.57 164.04l-131.173 42.57 12.687 30.134 126.575-49.184 3.471 2.368-128.643 50.149 26.18 62.18c81.138-32.175 122.992-48.719 125.562-49.632 2.57-.913 3.307.498 2.21 4.234l-125.261 51.36 23.97 56.931 124.289-50.215 1.356 5.763-123.367 49.86 30.399 73.858-10.934 5.093-30.718-74.606-107.63 41.561 21.924 55.654-25.306.883c-.088-1.907-19.775-53.062-40.213-105.755l-32.883 14.247-.327 1.729-2.542-.486-154.377 66.89-4.245-5.21 147.327-63.835-77.295-14.748-3.915 1.906-.176-.446-170.412 63.481 6.352 15.443-7.836 3.816-39.077-95.014-17.652 6.53C218.242 376.23 37.815 446.872-9.813 464.73l-7.456-22.921 283.373-108.835-29.99-76.117-51.775-7.012-51.828 19.116-3.957-7.755 54.798-20.212v-.006l.012.001 1.058-.39.292.573 57.656 7.81-.005.318.092-.045 10.605 26.916 78.017-30.12-7.42-16.402.621-.344-183.153-41.747.752-3.536 112.795 25.709 9.063-36.243-157.682-30.655.628-3.561 157.933 30.703 8.988-35.944-44.543-7.551.503-3.581 44.92 7.615 18.937-75.731.183.041-.469-.42 18.556-21.484-104.994-70.735L173.214 2.04l-2.772-2.324 32.175-38.299-.543-2.347-1.194-.804.751-1.112-9.746-42.166-35.606-8.21.02-.092-261.2 84.219-1.059-3.457 259.15-83.593-20.939-42.88-233.795 75.525-7.456-22.92 316.123-102.243a606.266 606.266 0 0 1-5.705-26.423l25.687-.896c.562 4.938 1.91 11.445 4.047 19.52L455.638-267zM283.706 352.004l28.399 69.047 74.926-27.912-23.74-70.304-18.207 6.633c-19.14 6.987-39.6 14.499-61.378 22.536zm456.39-38.985l-104.514 45.286 20.808 52.701 107.505-41.512-23.798-56.475zm-291.74-20.675l-8.678 3.059c-20.739 7.33-44.314 15.788-70.723 25.375l23.723 70.257 89.986-33.52-26.722-67.82-4.412 1.537c-1.077.376-2.136.747-3.175 1.112zm121.6-40.806l-15.532 5.098c-37.023 12.175-67.11 22.247-90.263 30.216l27.296 69.278 92.082 17.57-.022.114 29.09-12.604-21.248-54.652c-11.555-29.678-20.339-52.194-21.403-55.02zm141.322-6.908l-103.933 42.216 25.86 65.439 104.38-45.227-26.307-62.428zM333.5 251.403l-78.288 30.226 19.038 48.32 81.145-30.15-21.895-48.396zm93.287-36.016l-85.795 33.124L362.929 297l76.93-28.582-18.845-42.275-1.493-1.124 7.266-9.632zm270.05-5.026l-106.14 34.446 15.318 38.676 103.858-42.185-13.036-30.937zm-149.51-9.522L439.475 237.93l11.921 26.743 109.24-35.451-.708-1.576c-3.577-7.943-7.777-16.88-12.6-26.808zm-178.563-30.4l-37.422 56.744 7.228 15.976 88.82-34.292-58.626-38.428zm161.732-2.634l-69.791 22.649-26.648 35.321 3.94 8.84 107.734-37.05-1.292-2.64-1.32-2.682c-4.46-9.039-8.66-17.147-12.623-24.438zm-253.312-33.167l-18.98 75.899 69.358 15.809 37.94-57.53-.669-.602.208-.216-37.998-24.907-49.859-8.453zm395.138 23.213l-103.677 35.656a1048.152 1048.152 0 0 1 12.804 28.96l105.114-34.112-14.24-30.504zm-262.897-29.477l-.656.97-.869-.585-37.228 38.607 60.869 39.899 1.083-.418.143.613 19.107-25.324-.437-1.344 15.956-5.179-4.552-11.252-53.416-35.987zm248.272-1.85L552.55 160.647c4.765 9.101 9.62 18.955 14.566 29.563l103.668-35.653-13.087-28.033zm156.246-17.379l-130.15 44.761 14.33 30.697 131.174-42.57-15.354-32.888zm-388.644.314l-14.16 15.709 55.73 37.546-.494.732 4.469 11.047 20.711-6.721-7.613-18.82-.007.01-58.636-39.503zm67.367 2.618l-26.926 20.266 20.22 13.622-.364.537 1.082-.436 8.328 20.586 29.497-9.573-.775-1.342c-12.612-21.749-22.642-34.773-31.062-43.66zm-194.892-57.51l-.88 1.018.055.013-18.886 75.524 51.51 8.733-.074.523 38.097 24.972 37.274-38.632-50.808-34.23-19.357 20.734-2.647-2.465 18.966-20.315-53.25-35.875zm499.207 18.246l-12.318 6 .015.828-1.777.031-1.284.626-.292-.598-115.491 2.013v29.5l.167-.054 3.729 11.46-.473.153 12.997 27.84 130.151-44.761-15.424-33.038zM459.394 54.875c23.072 15.345 43.302 31.849 59.801 52.508 8.81 11.032 17.995 25.19 27.554 42.477l107.02-34.732V82.16L459.394 54.875zm-7.118 24.66l-24.53 27.21 34.82 23.46 27.556-20.74c-3.889-3.88-7.429-6.917-10.728-9.615l-1.152-.936c-6.367-5.14-15.424-11.897-25.966-19.38zm-80.434-6.09l-15.28 16.367 50.754 34.193 14.953-16.588-50.427-33.972zm-33.47-64.718l-6.783 7.524 70.058 47.197-.967 1.432.798.744-13.426 14.38 36.663 24.7 24.586-27.273-2.334-1.639C426.168 61.236 400.764 44.61 378.9 31.955l-3.074-1.772c-11.869-6.82-24.7-13.944-37.455-21.456zm-23.65 26.235l-14.565 16.85 53.366 35.953 15.281-16.367-54.083-36.436zm14.421-15.999L317.167 32.25l67.847 45.709 12.239-13.11-68.11-45.885zm-29.371 32.59l-2.024 2.996.026.018 2.382-2.756-.384-.259zm-34.237-99.994l-26.31 28.18 74.912 50.469 21.059-23.361-1.643-.98c-26.818-16.048-52.726-33.878-68.018-54.308zm-35.74-47.064l-3.108.89.162.365-3.306 1.47-.37-.829-13.266 3.8 12.048 37.033-.608.197.224.73-17.1 5.221.81 3.499 30.906 20.822 19.555-20.945-9.994-6.989-1.11.36-14.843-45.624zm8.257-2.365l-4.775 1.368 13.95 42.882 11.007 7.699 5.15-5.515a84.974 84.974 0 0 1-2.144-3.27c-8.46-13.59-16.19-27.979-23.188-43.164zm-31.626 9.058l-9.711 2.781-.468 2.026-.438-.101 7.846 33.947 13.959-4.262-11.188-34.391zm-38.013-61.947l-32.686 10.607 20.968 42.938.22-.067.172.562.006-.025 34.87 8.041 2.642-.609.027.117 27.055-7.749-10.086-22.625-27.077 7.755-.998-3.475.62-.177-15.733-35.293zm58.626 26.769l-11.925 3.415L225.2-97.95l11.337-3.247a441.31 441.31 0 0 1-9.498-22.793zm125.445-86.506L238.022-173.35l.82 2.532c3.34 10.242 7.375 21.869 12.105 34.88 2.967 8.162 6.081 15.934 9.413 23.365l111.651-49.65-19.527-48.273zm-158.487 51.434l-22.122 7.18 15.784 35.41 22.456-6.432-16.118-36.158zm19.258-6.25l-15.797 5.127 16.17 36.275 12.121-3.472c-4.58-12.19-8.744-24.834-12.494-37.93z" mask="url(#b)" opacity=".4"/>
        <circle cx="501.5" cy="239.5" r="7.5" fill="#333" mask="url(#b)"/>
        <text fill="#333" font-family="NanumSquareB, NanumSquare" font-size="14" font-weight="bold" mask="url(#b)">
            <tspan x="509" y="227">선릉역 5번출구</tspan>
        </text>
        <text fill="#999" font-family="NanumSquareB, NanumSquare" font-size="14" font-weight="bold" mask="url(#b)">
            <tspan x="616" y="23">선릉공원</tspan>
        </text>
        <g transform="translate(396 217)">
            <path fill="#639" d="M20.606 55S1.212 37.889 1.212 20.778c0-12.15 8.683-19.556 19.394-19.556C31.317 1.222 40 8.628 40 20.778 40 37.888 20.606 55 20.606 55z"/>
            <ellipse cx="21.212" cy="20.167" fill="#FFF" rx="6.667" ry="6.722"/>
        </g>
    </g>
</svg>
