<svg xmlns="http://www.w3.org/2000/svg" xmlns:xlink="http://www.w3.org/1999/xlink" width="960" height="400" viewBox="0 0 960 400">
    <defs>
        <path id="a" d="M0 0h960v400H0z"/>
    </defs>
    <g fill="none" fill-rule="evenodd">
        <mask id="b" fill="#fff">
            <use xlink:href="#a"/>
        </mask>
        <use fill="#F2F2F2" xlink:href="#a"/>
        <path fill="#D8D8D8" d="M237.906 1.055l21.292-.743c.466 4.097 1.584 9.497 3.355 16.199L451.863-45l6.18 19.021L367.89 3.314l15.989 39.574 3.399-1.513.45 1.012L517.27.297l1.545 4.754-131.246 42.645-.277-.854-1.539.685.163.404-4.636 1.873-.098-.242-92.327 41.106c17.076 36.064 41.117 62.41 84.504 88.067 24.644 14.573 47.71 26.945 68.373 39.896l173.564 24.393-.01-.535 103.403-1.805 76.896-37.504 6.598-19.16-15.021-24.039-.024.022L639.143 1.299l3.657-3.41 147.49 158.164.225-.14 18.017 28.834-1.672 1.045-4.92 14.288 9.96-4.858 2.192 4.494-14.454 7.05-.031.09-.09-.031-58.973 28.763 27.379 58.714 216.076-70.3 6.18 19.022-213.74 69.54 39.63 84.986-9.064 4.226-40.148-86.098-108.727 35.327 44.39 95.194-9.064 4.226-44.908-96.306-87.977 28.585c2.71 6.72 5.45 13.683 8.218 20.892l-20.975.733c-.149-3.226-1.627-8.572-4.435-16.039L415.6 429.808l-6.18-19.02 26.126-8.49-15.62-35.082-1.238-.933 26.817-35.587-.363-1.116 13.226-4.297-3.773-9.339-44.275-29.864-.544.806-.72-.486-15.522 17.24-2.23-2.008 15.24-16.926L364.43 256.3l-16.045 17.206-2.194-2.046 15.72-16.858-44.159-29.786 1.678-2.488 44.553 30.052 12.666-13.582-44.828-30.237-30.424 33.789-2.23-2.008 30.142-33.475-87.027-58.701-27.753 33.075-2.298-1.929 26.67-31.783-.45-1.947-.99-.668.622-.923-8.078-34.992-29.513-6.813.017-.077L-15.994 172l-.877-2.869 214.803-69.37-17.356-35.585-193.787 62.676-6.18-19.022 262.027-84.848a503.641 503.641 0 0 1-4.73-21.927zm48.857 85.071l92.544-41.203-16.185-40.06-94.875 30.827c2.895 9 6.466 19.349 10.713 31.047 2.46 6.773 5.04 13.222 7.803 19.39zM247.718 42.36l-13.094 4.254 13.403 30.104 10.047-2.881c-3.795-10.117-7.248-20.61-10.356-31.477zm11.425 34.291l-9.884 2.835 8.36 18.776 9.397-2.695a366.471 366.471 0 0 1-7.873-18.916zm9.129 21.677l-3.958 1.135 11.562 35.587 9.124 6.388 4.268-4.576a70.525 70.525 0 0 1-1.776-2.714c-7.013-11.278-13.42-23.218-19.22-35.82zm22.78 41.02l-21.808 23.385 62.093 41.882 17.455-19.386c-22.71-13.528-44.806-28.581-57.74-45.882zm60.372 47.44l-5.622 6.245 58.07 39.168-.802 1.188.662.617-11.129 11.934 30.39 20.498 20.378-22.633c-17.58-12.395-39.547-26.842-58.353-37.74-10.536-6.105-22.101-12.5-33.594-19.276zm94.413 58.762l-20.333 22.582 28.863 19.468 22.84-17.211c-3.364-3.361-6.413-5.958-9.249-8.27-5.3-4.32-13.047-10.12-22.121-16.57zm33.478 27.006l-22.318 16.818 16.76 11.304-.302.446.897-.362 6.903 17.084 24.45-7.944c-10.757-18.72-19.268-29.82-26.39-37.346zm44.828 31.355l88.707-28.823V247.73l-161.113-22.643c19.124 12.734 35.892 26.43 49.568 43.574 7.302 9.155 14.915 20.906 22.838 35.25zm28.762 60.255l87.127-28.31-11.804-25.314-85.936 29.59a870.357 870.357 0 0 1 10.613 24.034zm-17.252 5.605c-3.089-6.914-6.766-14.765-11.03-23.555l-89.396 30.782 9.88 22.193 90.546-29.42zm-6.702-56.908c3.95 7.552 7.975 15.73 12.074 24.533l85.928-29.588-10.848-23.263-87.154 28.318zm-18.28 5.94l-57.848 18.796-22.088 29.311 3.267 7.337 89.298-30.748c-.707-1.447-1.429-2.92-2.166-4.415-3.697-7.502-7.177-14.23-10.462-20.282zM241.109 143.754l25.618 17.28 16.208-17.381-8.283-5.8-.92.299-12.303-37.863-2.577.74.135.302-2.74 1.22-.307-.688-10.996 3.153 9.986 30.733-.503.164.185.605-14.173 4.333.67 2.903zm230.976 159.402l-.005.009-48.602-32.783-11.738 13.036 46.194 31.159-.41.607 3.704 9.168 17.167-5.578-6.31-15.618zm-51.119-34.468l-41.798-28.193-12.666 13.583 42.07 28.376 12.394-13.766zm-87.117-62.38l56.237 37.933 10.145-10.879-56.455-38.079-9.927 11.025zM201.162 99.283l.005-.02 28.903 6.672 2.19-.505.022.097 22.425-6.43-8.36-18.776-22.443 6.435-.827-2.884.513-.147-13.04-29.288-27.093 8.803 17.38 35.632.182-.055.143.466zm32.847 8.87l-.389 1.68-.363-.083 6.504 28.172 11.57-3.537-9.273-28.54-8.05 2.308zm-20.59-54.649l13.083 29.386 18.613-5.337-13.36-30.006-18.336 5.957zm423.041 251.03l107.88-37.145-12.786-27.417-10.21 4.98.013.686-1.473.026-1.065.52-.242-.497-95.727 1.67v24.482l.139-.045 3.09 9.51-.392.128 10.773 23.103zm1.275 2.735l11.88 25.474 108.726-35.327-12.727-27.293-107.879 37.146z" mask="url(#b)" opacity=".5"/>
        <circle cx="523" cy="360" r="6" fill="#333" mask="url(#b)"/>
        <text fill="#999" font-family="NanumSquareB, NanumSquare" font-size="14" font-weight="bold" mask="url(#b)">
            <tspan x="525" y="114">선릉공원</tspan>
        </text>
        <text fill="#333" font-family="NanumSquareB, NanumSquare" font-size="14" font-weight="bold" mask="url(#b)">
            <tspan x="535" y="365">선릉역 7번출구</tspan>
        </text>
        <circle cx="241" cy="53" r="6" fill="#333" mask="url(#b)"/>
        <text fill="#333" font-family="NanumSquareB, NanumSquare" font-size="14" font-weight="bold" mask="url(#b)">
            <tspan x="256" y="58">선정릉역 4번출구</tspan>
        </text>
        <g transform="translate(315 149)">
            <path fill="#639" d="M17 45S1 31 1 17C1 7.059 8.163 1 17 1s16 6.059 16 16c0 14-16 28-16 28z"/>
            <circle cx="17.5" cy="16.5" r="5.5" fill="#FFF"/>
        </g>
    </g>
</svg>
